<?xml version="1.0" encoding="utf-8"?>
<!-- Generator: Adobe Illustrator 22.0.1, SVG Export Plug-In . SVG Version: 6.00 Build 0)  -->
<svg version="1.1" id="Camada_1" xmlns="http://www.w3.org/2000/svg" xmlns:xlink="http://www.w3.org/1999/xlink" x="0px" y="0px"
	 viewBox="0 0 200 172.1" style="enable-background:new 0 0 200 172.1;" xml:space="preserve">
<style type="text/css">
	.st0{fill:#FFB6B6;}
	.st1{fill:#E6E6E6;}
	.st2{fill:#A0616A;}
	.st3{fill:#2F2E41;}
	.st4{fill:#3F3D56;}
	.st5{fill:#A60321;}
</style>
<g>
	<path id="uuid-0cad5e93-2d15-4fdd-8268-876a8a194bb8-299" class="st0" d="M97.5,126.7c4.8,1.5,7.9,5.1,6.9,8.2
		c-0.9,3-5.6,4.3-10.3,2.8c-1.9-0.6-3.7-1.6-5.1-3l-20.1-6.5l3.3-9.4l19.5,7.4C93.6,125.9,95.6,126,97.5,126.7L97.5,126.7z"/>
	<path class="st1" d="M54.5,58L54.5,58c-4.8-0.6-9.2,2.7-10.1,7.4c-3.2,16.9-9.9,53.5-9.1,54.4c1.2,1.2,44.4,13.9,44.4,13.9l5-10.8
		l-28.6-13.9l6.3-40.4C63.2,63.3,59.6,58.6,54.5,58L54.5,58z"/>
</g>
<g>
	<path id="uuid-0ff57380-e4ac-4dac-ba07-d0dae17f701d-300" class="st2" d="M106.6,144.3c-4.6,1.8-9.3,0.9-10.5-2.1
		c-1.2-3,1.7-6.8,6.3-8.6c1.8-0.8,3.8-1,5.8-0.9l19.8-7.4l3.3,9.4l-19.8,6.3C110.1,142.4,108.5,143.6,106.6,144.3L106.6,144.3z"/>
	<path class="st1" d="M135.1,63.9L135.1,63.9c4.7-0.9,9.4,2,10.6,6.7c4.3,16.7,13.5,52.7,12.7,53.6c-1.1,1.2-43.4,16.9-43.4,16.9
		l-5.7-10.5l27.6-15.8l-9-39.9C126.7,69.9,130,64.9,135.1,63.9L135.1,63.9z"/>
</g>
<polygon class="st0" points="51.1,60.4 53.4,45.7 37.5,39.2 35.2,61.6 "/>
<polygon class="st2" points="144,62.7 141.6,48 157.5,41.5 159.9,63.9 "/>
<g>
	<circle class="st0" cx="47" cy="34.2" r="16.2"/>
	<path class="st3" d="M45.8,12.4c0.5,0.3,1.1-0.1,1.2-0.7s0-1.1-0.2-1.6l-0.9-2.6c-0.6-1.8-1.3-3.7-2.6-5.1c-2-2.1-5.3-2.6-8.2-2.3
		C31.4,0.6,27.7,2.6,26,6c-1.7,3.3-1,8,2.1,10.1c-4.5,5.1-6,10.8-5.8,17.6c0.2,6.8,7.6,13,12.5,17.8c1.1-0.7,2.1-3.7,1.5-4.8
		c-0.6-1.1,0.3-2.4-0.5-3.4c-0.7-1-1.3,0.6-0.6-0.4c0.5-0.6-1.4-2.1-0.7-2.5c3.4-1.9,4.5-6.1,6.6-9.3c2.5-3.9,6.9-6.5,11.5-6.9
		c2.5-0.2,5.2,0.2,7.3,1.7c2.1,1.5,3.4,4.1,3,6.6c1.3-1.3,1.9-3.1,1.6-4.9c-0.2-1.8-1.3-3.4-2.9-4.3c0.9-3.1,0.1-6.7-2-9.1
		c-2.2-2.4-11-2-14.2-1.4"/>
	<path class="st3" d="M45.3,24.2c-4.2,0.5-7.2,4.1-9.8,7.5c-1.5,1.9-3,4.1-3,6.5c0,2.5,1.7,4.6,2.5,6.9c1.3,3.8,0,8.4-3,11
		c3,0.6,6.3-1.7,6.8-4.7c0.6-3.5-2.1-6.9-1.8-10.5c0.3-3.1,2.8-5.6,4.9-7.9c2.1-2.4,4.1-5.5,3.1-8.5"/>
</g>
<path class="st1" d="M52.9,57.9l-18.4-5l-18.9,7.7l-8.1,64.1l46.4,1.5V116c0,0,8.1-10.1,6.6-24.8l-1.5-14.7L52.9,57.9z"/>
<path class="st4" d="M61.4,84l-36.3-1.9l-9.9,28c0,0-12.2,16.8-14.1,29.2S0.3,169,0.3,169h58.1l-4.6-53c0,0,10.8-23.5,9.6-27.5
	C62.2,84.4,61.4,84,61.4,84L61.4,84z"/>
<rect x="24.7" y="53.1" class="st4" width="8.9" height="32.8"/>
<rect x="52.1" y="60.4" class="st4" width="8.9" height="27"/>
<path class="st1" d="M141.4,61l18.4-5l18.9,7.7l8.1,64.1l-46.4,1.5v-10.3c0,0-4.7-10.6-0.2-24.6c4.4-13.7-4.8-14.9-4.8-14.9
	L141.4,61L141.4,61z"/>
<path class="st4" d="M132.9,87.1l36.3-1.9l9.9,28c0,0,6,19.1,7.9,31.5c1.9,12.4,7,27.4,7,27.4h-58.1l-1.7-51L132.9,87.1L132.9,87.1z
	"/>
<rect x="160.7" y="56.2" class="st4" width="8.9" height="32.8"/>
<rect x="133.3" y="63.5" class="st4" width="8.9" height="27"/>
<circle class="st2" cx="147.6" cy="32.3" r="20.3"/>
<path class="st3" d="M167.6,43.4c0,0-9.8-11.8-13.8-10.8c-3.9,1-1.5,2.5-1.5,2.5l-9.8-10.8c0,0-7.9-2.9-15.2,6.4c0,0-4.4-7.9,0-12.3
	c4.4-4.4,5.9-3.9,6.9-6.4c1-2.5,7.9-4.4,7.9-4.4s-0.4-3.5,1.8-1.8c2.2,1.8,7.6,1.8,7.6,1.8s0-2,2.2,0s4.7,1,4.7,1s0,3.4,1.7,3.4
	s4.7-2.4,5.2-0.5c0.5,2,3.9,2.9,4.4,8.8C170,26.2,167.6,43.4,167.6,43.4z"/>
<g>
	<path class="st4" d="M92.2,73.7l15.7,29.7l-2.2,1.1L90,74.8c-0.2-0.4-0.1-1,0.4-1.2l0.6-0.3C91.4,73.1,92,73.2,92.2,73.7z"/>
	<path class="st4" d="M118.4,114.7c-4-1-8.2,0.8-10.2,4.4c-2.5,4.5-5.4,8.2-4.4-0.6c1.1-9.7-4.7-17.6-0.2-20
		c4.5-2.4,9.1,4.8,16.4,11.4C126.8,115.9,122.9,115.8,118.4,114.7L118.4,114.7z"/>
</g>
<g>
	<path id="uuid-8a6d9a0c-21d4-418f-b978-ee87cdca3434-301" class="st0" d="M95.2,79.7c4.5-2.1,9.3-1.4,10.6,1.5
		c1.3,2.9-1.3,6.9-5.8,9c-1.8,0.9-3.8,1.3-5.8,1.2l-19.3,8.5l-3.8-9.2l19.5-7.4C91.8,81.7,93.4,80.5,95.2,79.7L95.2,79.7z"/>
	<path class="st1" d="M17.3,57.3L17.3,57.3c-3.9,2.8-5.1,8.1-2.6,12.3c8.9,14.7,28.3,46.5,29.5,46.5c1.6,0.1,42.4-19.3,42.4-19.3
		l-3.5-11.4l-30.6,8.7L30.3,59.8C27.5,55.4,21.6,54.3,17.3,57.3L17.3,57.3z"/>
</g>
<path class="st5" d="M97.2,125.4l52.3-27.6l6.4,12.1c5.5,10.5,1.5,23.4-8.9,29l-14.3,7.6c-10.5,5.5-23.4,1.5-29-8.9L97.2,125.4
	L97.2,125.4L97.2,125.4z"/>
<path id="uuid-2a872263-818a-415e-b1e5-3dd60f2f0b07-302" class="st2" d="M141.5,143.9c-4.5,2.1-9.3,1.4-10.6-1.5
	c-1.3-2.9,1.3-6.9,5.8-9c1.8-0.9,3.8-1.3,5.8-1.2l19.3-8.5l3.8,9.2l-19.5,7.4C144.9,141.9,143.3,143.1,141.5,143.9L141.5,143.9z"/>
<path class="st1" d="M180.8,62.2L180.8,62.2c4.8-0.6,9.2,2.7,10.1,7.4c3.2,16.9,9.9,53.5,9.1,54.4c-1.2,1.2-44.4,13.9-44.4,13.9
	l-5-10.8l28.6-13.9l-6.3-40.4C172,67.6,175.6,62.8,180.8,62.2L180.8,62.2z"/>
</svg>
